<?xml version="1.0" standalone="no"?><!DOCTYPE svg PUBLIC "-//W3C//DTD SVG 1.1//EN" "http://www.w3.org/Graphics/SVG/1.1/DTD/svg11.dtd"><svg xmlns:xlink="http://www.w3.org/1999/xlink" version="1.1" class="highcharts-root" style="font-family: Roboto; font-size: 12px;" xmlns="http://www.w3.org/2000/svg" width="606" height="380" viewBox="0 0 606 380" aria-label="Interactive chart" aria-hidden="false"><desc aria-hidden="true">Created with Highcharts 10.3.1</desc><defs aria-hidden="true"><clipPath id="highcharts-8l6zz3c-458-"><rect x="0" y="0" width="552" height="296" fill="none"></rect></clipPath><clipPath id="highcharts-8l6zz3c-464-"><rect x="0" y="0" width="552" height="296" fill="none"></rect></clipPath></defs><rect fill="#ffffff" class="highcharts-background" x="0" y="0" width="606" height="380" rx="0" ry="0" aria-hidden="true"></rect><rect fill="none" class="highcharts-plot-background" x="44" y="10" width="552" height="296" aria-hidden="true"></rect><g class="highcharts-pane-group" data-z-index="0" aria-hidden="true"></g><g class="highcharts-grid highcharts-xaxis-grid" data-z-index="1" aria-hidden="true"><path fill="none" stroke-dasharray="none" data-z-index="1" class="highcharts-grid-line" d="M 153.5 10 L 153.5 306" opacity="1"></path><path fill="none" stroke-dasharray="none" data-z-index="1" class="highcharts-grid-line" d="M 264.5 10 L 264.5 306" opacity="1"></path><path fill="none" stroke-dasharray="none" data-z-index="1" class="highcharts-grid-line" d="M 374.5 10 L 374.5 306" opacity="1"></path><path fill="none" stroke-dasharray="none" data-z-index="1" class="highcharts-grid-line" d="M 485.5 10 L 485.5 306" opacity="1"></path><path fill="none" stroke-dasharray="none" data-z-index="1" class="highcharts-grid-line" d="M 595.5 10 L 595.5 306" opacity="1"></path><path fill="none" stroke-dasharray="none" data-z-index="1" class="highcharts-grid-line" d="M 43.5 10 L 43.5 306" opacity="1"></path></g><g class="highcharts-grid highcharts-yaxis-grid" data-z-index="1" aria-hidden="true"><path fill="none" stroke="#e6e6e6" stroke-width="1" stroke-dasharray="none" data-z-index="1" class="highcharts-grid-line" d="M 44 306.5 L 596 306.5" opacity="1"></path><path fill="none" stroke="#e6e6e6" stroke-width="1" stroke-dasharray="none" data-z-index="1" class="highcharts-grid-line" d="M 44 232.5 L 596 232.5" opacity="1"></path><path fill="none" stroke="#e6e6e6" stroke-width="1" stroke-dasharray="none" data-z-index="1" class="highcharts-grid-line" d="M 44 158.5 L 596 158.5" opacity="1"></path><path fill="none" stroke="#e6e6e6" stroke-width="1" stroke-dasharray="none" data-z-index="1" class="highcharts-grid-line" d="M 44 84.5 L 596 84.5" opacity="1"></path><path fill="none" stroke="#e6e6e6" stroke-width="1" stroke-dasharray="none" data-z-index="1" class="highcharts-grid-line" d="M 44 9.5 L 596 9.5" opacity="1"></path></g><rect fill="none" class="highcharts-plot-border" data-z-index="1" x="44" y="10" width="552" height="296" aria-hidden="true"></rect><g class="highcharts-axis highcharts-xaxis" data-z-index="2" aria-hidden="true"><path fill="none" class="highcharts-axis-line" stroke="#ccd6eb" stroke-width="1" data-z-index="7" d="M 44 306.5 L 596 306.5"></path></g><g class="highcharts-axis highcharts-yaxis" data-z-index="2" aria-hidden="true"><path fill="none" class="highcharts-axis-line" data-z-index="7" d="M 44 10 L 44 306"></path></g><g class="highcharts-series-group" data-z-index="3" aria-hidden="false"><g class="highcharts-series highcharts-series-0 highcharts-spline-series" data-z-index="0.1" opacity="1" transform="translate(44,10) scale(1 1)" clip-path="url(#highcharts-8l6zz3c-464-)" aria-hidden="true"><path fill="none" d="M 55.2 293.04 C 55.2 293.04 121.43999999999998 265.808 165.6 236.8 C 209.76 207.79200000000003 231.84 174.64000000000001 276 148 C 320.15999999999997 121.36000000000001 342.23999999999995 127.28 386.4 103.6 C 430.55999999999995 79.92000000000002 496.8 29.600000000000023 496.8 29.600000000000023" class="highcharts-graph" data-z-index="1" stroke="#d10000" stroke-width="2" stroke-linejoin="round" stroke-linecap="round"></path></g><g class="highcharts-markers highcharts-series-0 highcharts-spline-series" data-z-index="0.1" opacity="1" transform="translate(44,10) scale(1 1)" clip-path="none" aria-hidden="false"><path fill="#d10000" d="M 55 297 A 4 4 0 1 1 55.00399999933334 296.9999980000002 Z" opacity="1" class="highcharts-point" tabindex="-1" role="img" aria-label="2010, 1. Item 1." style="outline: none;"></path><path fill="#d10000" d="M 165 241 A 4 4 0 1 1 165.00399999933333 240.99999800000018 Z" opacity="1" class="highcharts-point" tabindex="-1" role="img" aria-label="2020, 20. Item 1." style="outline: none;"></path><path fill="#d10000" d="M 276 152 A 4 4 0 1 1 276.00399999933336 151.99999800000018 Z" opacity="1" class="highcharts-point" tabindex="-1" role="img" aria-label="2021, 50. Item 1." style="outline: none;"></path><path fill="#d10000" d="M 386 108 A 4 4 0 1 1 386.00399999933336 107.99999800000016 Z" opacity="1" class="highcharts-point" tabindex="-1" role="img" aria-label="2022, 65. Item 1." style="outline: none;"></path><path fill="#d10000" d="M 496 34 A 4 4 0 1 1 496.00399999933336 33.99999800000017 Z" opacity="1" class="highcharts-point" tabindex="-1" role="img" aria-label="2022, 90. Item 1." style="outline: none;"></path></g></g><text x="303" text-anchor="middle" class="highcharts-title" data-z-index="4" style="color: rgb(51, 51, 51); font-size: 18px; fill: rgb(51, 51, 51);" y="24" aria-hidden="true"></text><text x="303" text-anchor="middle" class="highcharts-subtitle" data-z-index="4" style="color: rgb(102, 102, 102); fill: rgb(102, 102, 102);" y="24" aria-hidden="true"></text><text x="10" text-anchor="start" class="highcharts-caption" data-z-index="4" style="color: rgb(102, 102, 102); fill: rgb(102, 102, 102);" y="377" aria-hidden="true"></text><g class="highcharts-legend highcharts-no-tooltip" data-z-index="7" transform="translate(267,339)" aria-hidden="true"><rect fill="none" class="highcharts-legend-box" rx="0" ry="0" x="0" y="0" width="71" height="26"></rect><g data-z-index="1"><g><g class="highcharts-legend-item highcharts-spline-series highcharts-color-undefined highcharts-series-0" data-z-index="1" transform="translate(8,3)"><path fill="none" d="M 0 11 L 16 11" class="highcharts-graph" stroke="#d10000" stroke-width="2"></path><path fill="#d10000" d="M 8 15 A 4 4 0 1 1 8.003999999333336 14.999998000000167 Z" class="highcharts-point" opacity="1"></path><text x="21" text-anchor="start" data-z-index="2" y="15" style="color: rgb(51, 51, 51); cursor: pointer; font-size: 12px; font-weight: bold; fill: rgb(51, 51, 51);">Item 1</text></g></g></g></g><g class="highcharts-axis-labels highcharts-xaxis-labels" data-z-index="7" aria-hidden="true"><text x="99.2" style="color: rgb(102, 102, 102); cursor: default; font-size: 11px; fill: rgb(102, 102, 102);" text-anchor="middle" transform="translate(0,0)" y="325" opacity="1">2010</text><text x="209.60000000000002" text-anchor="middle" transform="translate(0,0)" style="color: rgb(102, 102, 102); cursor: default; font-size: 11px; fill: rgb(102, 102, 102);" y="325" opacity="1">2020</text><text x="320" text-anchor="middle" transform="translate(0,0)" style="color: rgb(102, 102, 102); cursor: default; font-size: 11px; fill: rgb(102, 102, 102);" y="325" opacity="1">2021</text><text x="430.40000000000003" text-anchor="middle" transform="translate(0,0)" style="color: rgb(102, 102, 102); cursor: default; font-size: 11px; fill: rgb(102, 102, 102);" y="325" opacity="1">2022</text><text x="540.8" text-anchor="middle" transform="translate(0,0)" style="color: rgb(102, 102, 102); cursor: default; font-size: 11px; fill: rgb(102, 102, 102);" y="325" opacity="1">2022</text></g><g class="highcharts-axis-labels highcharts-yaxis-labels" data-z-index="7" aria-hidden="true"><text x="29" style="color: rgb(102, 102, 102); cursor: default; font-size: 11px; fill: rgb(102, 102, 102);" text-anchor="end" transform="translate(0,0)" y="310" opacity="1">0</text><text x="29" style="color: rgb(102, 102, 102); cursor: default; font-size: 11px; fill: rgb(102, 102, 102);" text-anchor="end" transform="translate(0,0)" y="236" opacity="1">25</text><text x="29" style="color: rgb(102, 102, 102); cursor: default; font-size: 11px; fill: rgb(102, 102, 102);" text-anchor="end" transform="translate(0,0)" y="162" opacity="1">50</text><text x="29" style="color: rgb(102, 102, 102); cursor: default; font-size: 11px; fill: rgb(102, 102, 102);" text-anchor="end" transform="translate(0,0)" y="88" opacity="1">75</text><text x="29" style="color: rgb(102, 102, 102); cursor: default; font-size: 11px; fill: rgb(102, 102, 102);" text-anchor="end" transform="translate(0,0)" y="14" opacity="1">100</text></g><text x="596" class="highcharts-credits" text-anchor="end" data-z-index="8" y="375" style="cursor: pointer; color: rgb(153, 153, 153); font-size: 9px; fill: rgb(153, 153, 153);" aria-label="Chart credits: Highcharts.com" aria-hidden="false">Highcharts.com</text></svg>